<svg xmlns="http://www.w3.org/2000/svg" viewBox="0 0 820 380" width="820" height="380" font-family='system-ui, -apple-system, "Segoe UI", Helvetica, Arial, sans-serif'>
<rect width="820" height="380" rx="10" fill="#1a1a19"/>
<text x="28.0" y="38.0" font-size="17" font-weight="600" fill="#ffffff" text-anchor="start">Where the gain comes from</text>
<text x="28.0" y="60.0" font-size="12.5" font-weight="400" fill="#c3c2b7" text-anchor="start">CMB-Exam test accuracy by question type · 9,999 single-answer and 1,190 multi-answer questions</text>
<line x1="70.0" y1="300.0" x2="640.0" y2="300.0" stroke="#2c2c2a" stroke-width="1" stroke-linecap="butt"/>
<text x="60.0" y="304.0" font-size="11.5" font-weight="400" fill="#898781" text-anchor="end">40</text>
<line x1="70.0" y1="260.0" x2="640.0" y2="260.0" stroke="#2c2c2a" stroke-width="1" stroke-linecap="butt"/>
<text x="60.0" y="264.0" font-size="11.5" font-weight="400" fill="#898781" text-anchor="end">50</text>
<line x1="70.0" y1="220.0" x2="640.0" y2="220.0" stroke="#2c2c2a" stroke-width="1" stroke-linecap="butt"/>
<text x="60.0" y="224.0" font-size="11.5" font-weight="400" fill="#898781" text-anchor="end">60</text>
<line x1="70.0" y1="180.0" x2="640.0" y2="180.0" stroke="#2c2c2a" stroke-width="1" stroke-linecap="butt"/>
<text x="60.0" y="184.0" font-size="11.5" font-weight="400" fill="#898781" text-anchor="end">70</text>
<line x1="70.0" y1="140.0" x2="640.0" y2="140.0" stroke="#2c2c2a" stroke-width="1" stroke-linecap="butt"/>
<text x="60.0" y="144.0" font-size="11.5" font-weight="400" fill="#898781" text-anchor="end">80</text>
<line x1="70.0" y1="100.0" x2="640.0" y2="100.0" stroke="#2c2c2a" stroke-width="1" stroke-linecap="butt"/>
<text x="60.0" y="104.0" font-size="11.5" font-weight="400" fill="#898781" text-anchor="end">90</text>
<text x="100.0" y="322.0" font-size="12" font-weight="400" fill="#c3c2b7" text-anchor="middle">zero-shot</text>
<text x="270.0" y="322.0" font-size="12" font-weight="400" fill="#c3c2b7" text-anchor="middle">Stage 1</text>
<text x="440.0" y="322.0" font-size="12" font-weight="400" fill="#c3c2b7" text-anchor="middle">Stage 2</text>
<text x="610.0" y="322.0" font-size="12" font-weight="400" fill="#c3c2b7" text-anchor="middle">Stage 3</text>
<polyline points="100.0,129.4 270.0,112.0 440.0,112.0 610.0,111.9" fill="none" stroke="#3987e5" stroke-width="2" stroke-linejoin="round" stroke-linecap="round" opacity="1.0"/>
<circle cx="100.0" cy="129.4" r="5" fill="#3987e5" stroke="#1a1a19" stroke-width="2"/>
<circle cx="270.0" cy="112.0" r="5" fill="#3987e5" stroke="#1a1a19" stroke-width="2"/>
<circle cx="440.0" cy="112.0" r="5" fill="#3987e5" stroke="#1a1a19" stroke-width="2"/>
<circle cx="610.0" cy="111.9" r="5" fill="#3987e5" stroke="#1a1a19" stroke-width="2"/>
<text x="624.0" y="115.9" font-size="12.5" font-weight="600" fill="#ffffff" text-anchor="start">87.0  single-answer</text>
<text x="100.0" y="117.4" font-size="12" font-weight="400" fill="#c3c2b7" text-anchor="middle">82.7</text>
<polyline points="100.0,274.4 270.0,287.6 440.0,268.4 610.0,214.0" fill="none" stroke="#d95926" stroke-width="2" stroke-linejoin="round" stroke-linecap="round" opacity="1.0"/>
<circle cx="100.0" cy="274.4" r="5" fill="#d95926" stroke="#1a1a19" stroke-width="2"/>
<circle cx="270.0" cy="287.6" r="5" fill="#d95926" stroke="#1a1a19" stroke-width="2"/>
<circle cx="440.0" cy="268.4" r="5" fill="#d95926" stroke="#1a1a19" stroke-width="2"/>
<circle cx="610.0" cy="214.0" r="5" fill="#d95926" stroke="#1a1a19" stroke-width="2"/>
<text x="624.0" y="218.0" font-size="12.5" font-weight="600" fill="#ffffff" text-anchor="start">61.5  multi-answer</text>
<text x="100.0" y="262.4" font-size="12" font-weight="400" fill="#c3c2b7" text-anchor="middle">46.4</text>
<line x1="70.0" y1="352.0" x2="88.0" y2="352.0" stroke="#3987e5" stroke-width="2" stroke-linecap="round"/>
<circle cx="79.0" cy="352.0" r="4" fill="#3987e5" stroke="#1a1a19" stroke-width="2"/>
<text x="96.0" y="356.0" font-size="12" font-weight="400" fill="#c3c2b7" text-anchor="start">single-answer questions</text>
<line x1="283.6" y1="352.0" x2="301.6" y2="352.0" stroke="#d95926" stroke-width="2" stroke-linecap="round"/>
<circle cx="292.6" cy="352.0" r="4" fill="#d95926" stroke="#1a1a19" stroke-width="2"/>
<text x="309.6" y="356.0" font-size="12" font-weight="400" fill="#c3c2b7" text-anchor="start">multi-answer questions</text>
</svg>
